<svg preserveAspectRatio="none" overflow="visible" style="display: block;" width="196" height="58" viewBox="0 0 196 58" fill="none" xmlns="http://www.w3.org/2000/svg">
<g id="Worldmark">
<path d="M115.309 7.36581e-07L120.874 5.64533V16.82H113.099V6.76667H101.805V27.0667H94.0291V6.76667H83.1878V27.0667H75.4122V5.64533L80.939 7.36581e-07H115.309Z" fill="black"/>
<path d="M66.0543 7.36581e-07L71.6191 5.64533V27.0667H63.8436V20.3H44.9383V27.0667H37.1627V5.64533L42.6894 7.36581e-07H66.0543ZM44.9383 13.5333H63.8436V6.76667H44.9383V13.5333Z" fill="black"/>
<path d="M27.7862 7.36581e-07L33.3511 5.64533V27.0667H25.728V6.76667H7.62311V27.0667H0V5.64533L5.52676 7.36581e-07H27.7862Z" fill="black"/>
<path d="M190.435 30.9333L196 36.5787V58H188.377V37.7H170.272V58H162.649V36.5787L168.176 30.9333H190.435Z" fill="black"/>
<path d="M136.921 41.5667H158.837V58H130.06L124.533 52.3933V30.9333H158.837V37.7H132.309V51.2333H151.214V47.3667H136.921V41.5667Z" fill="black"/>
<path d="M103.958 41.1027L109.523 46.748V52.3933L103.958 58H75.3736V51.2333H101.805V47.8693H75.2782V36.5787L80.805 30.9333H109.523V37.7H82.7108V41.1027H103.958Z" fill="black"/>
<path d="M44.9383 37.7V41.5667H68.608V47.3667H44.9383V51.2333H71.4667V58H42.6894L37.1627 52.3933V36.5787L42.6894 30.9333H71.4667V37.7H44.9383Z" fill="black"/>
<path d="M27.7862 30.9333L33.3511 36.5787V52.3933L27.7862 58H0V30.9333H27.7862ZM25.728 37.7H7.77558V51.2333H25.728V37.7Z" fill="black"/>
<path d="M113.251 20.3H120.874V27.0667H113.251V20.3Z" fill="black"/>
<path d="M113.251 30.74H120.874V58H113.251V30.74Z" fill="black"/>
<path d="M124.626 27.0667V0L132.249 6.74082e-07V20.3L150.354 20.3V2.27502e-06L157.977 2.94911e-06V21.4213L152.45 27.0667L124.626 27.0667Z" fill="black"/>
</g>
</svg>
